<?xml version="1.0" standalone="no"?>
<!DOCTYPE svg PUBLIC "-//W3C//DTD SVG 20010904//EN"
 "http://www.w3.org/TR/2001/REC-SVG-20010904/DTD/svg10.dtd">
<svg version="1.0" xmlns="http://www.w3.org/2000/svg"
 width="16.000000pt" height="16.000000pt" viewBox="0 0 16.000000 16.000000"
 preserveAspectRatio="xMidYMid meet">
<metadata>
Created by potrace 1.11, written by Peter Selinger 2001-2013
</metadata>
<g transform="translate(0.000000,16.000000) scale(0.006250,-0.006250)"
fill="#000000" stroke="none">
<path d="M1648 2010 c-141 -25 -290 -100 -438 -219 l-64 -52 -12 34 c-42 122
-108 186 -224 217 -54 14 -208 15 -270 1 -37 -8 -227 -71 -291 -96 -16 -6 -54
-124 -44 -134 3 -2 32 4 66 14 120 37 236 15 258 -47 27 -78 21 -110 -193
-1023 -20 -82 -36 -158 -36 -168 0 -16 16 -17 242 -15 l242 3 12 50 c7 28 60
264 119 525 l107 475 57 52 c96 90 233 149 323 141 60 -6 97 -32 114 -80 24
-70 10 -143 -116 -618 -37 -136 -48 -264 -30 -339 33 -140 175 -231 361 -231
105 0 158 12 306 67 l128 48 17 63 c19 70 20 69 -62 47 -30 -8 -81 -15 -113
-15 -172 0 -193 87 -102 425 124 460 118 433 119 550 1 101 -1 114 -26 161
-32 61 -93 118 -156 146 -53 23 -212 33 -294 18z"/>
</g>
</svg>
