<?xml version="1.0" standalone="no"?>
<!DOCTYPE svg PUBLIC "-//W3C//DTD SVG 20010904//EN"
 "http://www.w3.org/TR/2001/REC-SVG-20010904/DTD/svg10.dtd">
<svg version="1.0" xmlns="http://www.w3.org/2000/svg"
 width="260.000000pt" height="260.000000pt" viewBox="0 0 260.000000 260.000000"
 preserveAspectRatio="xMidYMid meet">
<metadata>
Created by potrace 1.11, written by Peter Selinger 2001-2013
</metadata>
<g transform="translate(0.000000,260.000000) scale(0.100000,-0.100000)"
fill="#000000" stroke="none">
<path d="M1661 2040 c-75 -16 -143 -41 -226 -83 -78 -41 -217 -137 -244 -170
-20 -25 -29 -21 -40 21 -14 52 -62 124 -103 155 -117 90 -308 95 -543 16 -168
-57 -169 -58 -183 -119 -19 -82 -20 -80 51 -58 45 14 83 19 139 16 69 -3 81
-6 105 -31 27 -26 28 -32 28 -120 -1 -81 -14 -150 -118 -597 -65 -278 -120
-513 -123 -522 -5 -17 11 -18 244 -18 l250 0 16 72 c9 40 65 284 125 543 l107
470 60 48 c65 54 131 90 213 118 65 23 110 24 156 5 100 -42 99 -142 -5 -521
-107 -385 -113 -499 -37 -612 35 -51 108 -106 165 -124 57 -17 225 -23 293
-10 33 7 117 34 187 60 l127 48 12 49 c20 87 22 84 -54 62 -83 -23 -195 -21
-235 6 -49 32 -59 106 -34 238 8 40 47 190 86 333 60 220 72 276 77 366 7 135
-8 187 -78 263 -71 78 -126 99 -264 102 -60 2 -130 -1 -154 -6z"/>
</g>
</svg>
